;Layer: Drill PTH
;EasyEDA v6.1.52, Mon, 08 Jul 2019 10:21:38 GMT
;5413f9b5b7f849b2b35cf240694ed7f1,988ceec4d1f441188f864a740997233d,10
;Gerber Generator version 0.2
M48
METRIC,LZ,000.000
;Holesize 1 = 0.305 METRIC
T01C0.305
;Holesize 2 = 0.798 METRIC
T02C0.798
;Holesize 3 = 0.915 METRIC
T03C0.915
;Holesize 4 = 1.016 METRIC
T04C1.016
%
G05
G90
T01
X+022771Y+042418
X+021844Y+044958
X+009880Y+035786
T02
X+050038Y+018796
X+047498Y+018796
T03
X+003807Y+061465
X+003810Y+058928
X+003810Y+056388
X+003810Y+053848
X+003810Y+051308
X+003810Y+048768
X+003810Y+046228
X+003810Y+043688
X+003810Y+041148
X+003810Y+038608
X+003810Y+036068
X+003810Y+033528
X+003810Y+030988
X+003810Y+028448
X+003810Y+025908
X+026670Y+025908
X+026670Y+028448
X+026670Y+030988
X+026670Y+033528
X+026670Y+036068
X+026670Y+038608
X+026670Y+041148
X+026670Y+043688
X+026670Y+046228
X+026670Y+048768
X+026670Y+051308
X+026670Y+053848
X+026670Y+056388
X+026670Y+058928
X+026670Y+061468
X+037084Y+014986
X+034544Y+014986
X+032004Y+014986
X+029464Y+014986
X+026924Y+014986
X+024384Y+014986
X+021844Y+014986
X+019304Y+014986
T04
X+032258Y+034949
X+034798Y+034949
X+037338Y+034949
X+039878Y+034949
X+042418Y+034949
X+044958Y+034949
X+047498Y+034949
X+050038Y+034949
M30
