G04 Layer: TopSolderMaskLayer*
G04 EasyEDA v6.1.52, Mon, 08 Jul 2019 10:21:38 GMT*
G04 5413f9b5b7f849b2b35cf240694ed7f1,988ceec4d1f441188f864a740997233d,10*
G04 Gerber Generator version 0.2*
G04 Scale: 100 percent, Rotated: No, Reflected: No *
G04 Dimensions in millimeters *
G04 leading zeros omitted , absolute positions ,3 integer and 3 decimal *
%FSLAX33Y33*%
%MOMM*%
G90*
G71D02*

%ADD26C,1.727200*%
%ADD27R,1.879600X1.879600*%
%ADD28C,1.879600*%

%LPD*%
G36*
G01X31267Y33959D02*
G01X31267Y35941D01*
G01X33248Y35941D01*
G01X33248Y33959D01*
G01X31267Y33959D01*
G37*
G36*
G01X33807Y33959D02*
G01X33807Y35941D01*
G01X35788Y35941D01*
G01X35788Y33959D01*
G01X33807Y33959D01*
G37*
G36*
G01X36347Y33959D02*
G01X36347Y35941D01*
G01X38328Y35941D01*
G01X38328Y33959D01*
G01X36347Y33959D01*
G37*
G36*
G01X38887Y33959D02*
G01X38887Y35941D01*
G01X40868Y35941D01*
G01X40868Y33959D01*
G01X38887Y33959D01*
G37*
G36*
G01X41427Y33959D02*
G01X41427Y35941D01*
G01X43408Y35941D01*
G01X43408Y33959D01*
G01X41427Y33959D01*
G37*
G36*
G01X43967Y33959D02*
G01X43967Y35941D01*
G01X45948Y35941D01*
G01X45948Y33959D01*
G01X43967Y33959D01*
G37*
G36*
G01X46507Y33959D02*
G01X46507Y35941D01*
G01X48488Y35941D01*
G01X48488Y33959D01*
G01X46507Y33959D01*
G37*
G36*
G01X49047Y33959D02*
G01X49047Y35941D01*
G01X51028Y35941D01*
G01X51028Y33959D01*
G01X49047Y33959D01*
G37*
G36*
G01X2943Y60601D02*
G01X2943Y62329D01*
G01X4671Y62329D01*
G01X4671Y60601D01*
G01X2943Y60601D01*
G37*
G54D26*
G01X3810Y58928D03*
G01X3810Y56388D03*
G01X3810Y53848D03*
G01X3810Y51308D03*
G01X3810Y48768D03*
G01X3810Y46228D03*
G01X3810Y43688D03*
G01X3810Y41148D03*
G01X3810Y38608D03*
G01X3810Y36068D03*
G01X3810Y33528D03*
G01X3810Y30988D03*
G01X3810Y28448D03*
G01X3810Y25908D03*
G01X26670Y25908D03*
G01X26670Y28448D03*
G01X26670Y30988D03*
G01X26670Y33528D03*
G01X26670Y36068D03*
G01X26670Y38608D03*
G01X26670Y41148D03*
G01X26670Y43688D03*
G01X26670Y46228D03*
G01X26670Y48768D03*
G01X26670Y51308D03*
G01X26670Y53848D03*
G01X26670Y56388D03*
G01X26670Y58928D03*
G01X26670Y61468D03*
G01X37084Y14986D03*
G01X34544Y14986D03*
G01X32004Y14986D03*
G01X29464Y14986D03*
G01X26924Y14986D03*
G01X24384Y14986D03*
G01X21844Y14986D03*
G01X19304Y14986D03*
G54D27*
G01X50038Y18796D03*
G54D28*
G01X47498Y18796D03*
M00*
M02*
