G04 Layer: TopSilkLayer*
G04 EasyEDA v6.1.52, Mon, 08 Jul 2019 10:21:38 GMT*
G04 5413f9b5b7f849b2b35cf240694ed7f1,988ceec4d1f441188f864a740997233d,10*
G04 Gerber Generator version 0.2*
G04 Scale: 100 percent, Rotated: No, Reflected: No *
G04 Dimensions in millimeters *
G04 leading zeros omitted , absolute positions ,3 integer and 3 decimal *
%FSLAX33Y33*%
%MOMM*%
G90*
G71D02*

%ADD10C,0.254000*%
%ADD11C,0.203200*%
%ADD18C,0.152400*%
%ADD19C,0.200000*%
%ADD20C,0.101600*%
%ADD21C,0.100000*%
%ADD22C,0.399999*%
%ADD23C,0.177800*%

%LPD*%

%LPD*%
G36*
G01X14241Y35672D02*
G01X14196Y35717D01*
G01X14189Y35713D01*
G01X14175Y35701D01*
G01X14153Y35682D01*
G01X14124Y35656D01*
G01X14089Y35622D01*
G01X14048Y35583D01*
G01X14000Y35537D01*
G01X13948Y35486D01*
G01X13891Y35430D01*
G01X13829Y35370D01*
G01X13763Y35304D01*
G01X13693Y35235D01*
G01X13621Y35162D01*
G01X13545Y35086D01*
G01X13468Y35006D01*
G01X13388Y34925D01*
G01X13191Y34728D01*
G01X13106Y34642D01*
G01X13028Y34564D01*
G01X12958Y34493D01*
G01X12896Y34429D01*
G01X12840Y34372D01*
G01X12790Y34320D01*
G01X12747Y34274D01*
G01X12709Y34233D01*
G01X12677Y34196D01*
G01X12649Y34163D01*
G01X12627Y34134D01*
G01X12608Y34107D01*
G01X12594Y34083D01*
G01X12583Y34061D01*
G01X12575Y34042D01*
G01X12570Y34023D01*
G01X12567Y34005D01*
G01X12567Y33986D01*
G01X12568Y33968D01*
G01X12570Y33949D01*
G01X12574Y33928D01*
G01X12578Y33906D01*
G01X12580Y33898D01*
G01X12583Y33890D01*
G01X12587Y33880D01*
G01X12593Y33869D01*
G01X12601Y33857D01*
G01X12612Y33842D01*
G01X12624Y33826D01*
G01X12639Y33808D01*
G01X12656Y33787D01*
G01X12677Y33764D01*
G01X12701Y33738D01*
G01X12727Y33708D01*
G01X12758Y33676D01*
G01X12792Y33640D01*
G01X12830Y33600D01*
G01X12872Y33556D01*
G01X12919Y33509D01*
G01X12970Y33456D01*
G01X13088Y33338D01*
G01X13154Y33271D01*
G01X13225Y33200D01*
G01X13303Y33123D01*
G01X13386Y33039D01*
G01X13475Y32950D01*
G01X13571Y32855D01*
G01X13673Y32754D01*
G01X13782Y32646D01*
G01X13889Y32538D01*
G01X13990Y32436D01*
G01X14085Y32341D01*
G01X14173Y32252D01*
G01X14470Y31956D01*
G01X14587Y31839D01*
G01X14639Y31788D01*
G01X14686Y31742D01*
G01X14729Y31700D01*
G01X14769Y31662D01*
G01X14804Y31628D01*
G01X14836Y31598D01*
G01X14865Y31571D01*
G01X14891Y31547D01*
G01X14914Y31527D01*
G01X14935Y31509D01*
G01X14953Y31494D01*
G01X14969Y31482D01*
G01X14983Y31472D01*
G01X14996Y31464D01*
G01X15007Y31457D01*
G01X15016Y31453D01*
G01X15026Y31449D01*
G01X15034Y31447D01*
G01X15117Y31443D01*
G01X15194Y31456D01*
G01X15267Y31487D01*
G01X15339Y31539D01*
G01X15430Y31607D01*
G01X14246Y32786D01*
G01X13083Y33957D01*
G01X13792Y34683D01*
G01X14513Y35402D01*
G01X14356Y35560D01*
G01X14292Y35622D01*
G01X14241Y35672D01*
G37*

%LPD*%
G36*
G01X15085Y35811D02*
G01X14673Y36210D01*
G01X14513Y36062D01*
G01X14358Y35907D01*
G01X14610Y35653D01*
G01X14864Y35402D01*
G01X14137Y34683D01*
G01X13421Y33957D01*
G01X14513Y32875D01*
G01X15598Y31790D01*
G01X15758Y31950D01*
G01X15918Y32108D01*
G01X14988Y33035D01*
G01X14041Y33969D01*
G01X14767Y34686D01*
G01X15483Y35402D01*
G01X15085Y35811D01*
G37*

%LPD*%
G36*
G01X15181Y36511D02*
G01X15113Y36518D01*
G01X15047Y36513D01*
G01X14991Y36494D01*
G01X14966Y36486D01*
G01X14941Y36471D01*
G01X14917Y36452D01*
G01X14894Y36431D01*
G01X14843Y36385D01*
G01X15339Y35892D01*
G01X15841Y35399D01*
G01X15118Y34686D01*
G01X14389Y33969D01*
G01X15245Y33126D01*
G01X16095Y32283D01*
G01X16256Y32440D01*
G01X16413Y32595D01*
G01X15725Y33289D01*
G01X15021Y33982D01*
G01X15463Y34414D01*
G01X15553Y34505D01*
G01X15631Y34584D01*
G01X15695Y34651D01*
G01X15748Y34707D01*
G01X15791Y34753D01*
G01X15824Y34791D01*
G01X15850Y34823D01*
G01X15868Y34849D01*
G01X15880Y34870D01*
G01X15888Y34888D01*
G01X15891Y34904D01*
G01X15892Y34919D01*
G01X15897Y34973D01*
G01X15913Y35021D01*
G01X15937Y35064D01*
G01X15971Y35100D01*
G01X16011Y35130D01*
G01X16058Y35152D01*
G01X16111Y35166D01*
G01X16169Y35171D01*
G01X16213Y35168D01*
G01X16250Y35157D01*
G01X16285Y35134D01*
G01X16327Y35097D01*
G01X16356Y35061D01*
G01X16377Y35027D01*
G01X16389Y34989D01*
G01X16393Y34940D01*
G01X16388Y34882D01*
G01X16375Y34832D01*
G01X16354Y34787D01*
G01X16325Y34749D01*
G01X16289Y34719D01*
G01X16246Y34696D01*
G01X16197Y34683D01*
G01X16141Y34678D01*
G01X16118Y34676D01*
G01X16094Y34667D01*
G01X16064Y34649D01*
G01X16026Y34619D01*
G01X15977Y34576D01*
G01X15912Y34514D01*
G01X15829Y34433D01*
G01X15725Y34330D01*
G01X15372Y33982D01*
G01X15981Y33378D01*
G01X16583Y32773D01*
G01X16730Y32918D01*
G01X16870Y33060D01*
G01X16626Y33304D01*
G01X16554Y33378D01*
G01X16496Y33435D01*
G01X16449Y33479D01*
G01X16411Y33510D01*
G01X16381Y33532D01*
G01X16355Y33545D01*
G01X16332Y33551D01*
G01X16309Y33553D01*
G01X16258Y33558D01*
G01X16211Y33573D01*
G01X16170Y33596D01*
G01X16135Y33625D01*
G01X16106Y33661D01*
G01X16085Y33701D01*
G01X16071Y33744D01*
G01X16066Y33790D01*
G01X16069Y33836D01*
G01X16082Y33882D01*
G01X16105Y33926D01*
G01X16139Y33967D01*
G01X16180Y34001D01*
G01X16224Y34024D01*
G01X16270Y34038D01*
G01X16316Y34042D01*
G01X16362Y34037D01*
G01X16406Y34023D01*
G01X16447Y34002D01*
G01X16482Y33974D01*
G01X16512Y33937D01*
G01X16535Y33895D01*
G01X16550Y33848D01*
G01X16555Y33794D01*
G01X16557Y33771D01*
G01X16563Y33748D01*
G01X16577Y33724D01*
G01X16598Y33694D01*
G01X16629Y33657D01*
G01X16673Y33609D01*
G01X16730Y33550D01*
G01X16804Y33477D01*
G01X17048Y33235D01*
G01X17198Y33383D01*
G01X17353Y33540D01*
G01X17114Y33779D01*
G01X17041Y33854D01*
G01X16983Y33911D01*
G01X16938Y33953D01*
G01X16902Y33983D01*
G01X16872Y34003D01*
G01X16846Y34016D01*
G01X16821Y34023D01*
G01X16794Y34028D01*
G01X16727Y34043D01*
G01X16669Y34070D01*
G01X16622Y34108D01*
G01X16586Y34154D01*
G01X16563Y34208D01*
G01X16555Y34266D01*
G01X16562Y34326D01*
G01X16586Y34386D01*
G01X16621Y34444D01*
G01X16667Y34483D01*
G01X16728Y34504D01*
G01X16807Y34510D01*
G01X16864Y34509D01*
G01X16906Y34500D01*
G01X16943Y34481D01*
G01X16984Y34444D01*
G01X17015Y34404D01*
G01X17034Y34370D01*
G01X17045Y34334D01*
G01X17048Y34287D01*
G01X17049Y34255D01*
G01X17053Y34229D01*
G01X17063Y34203D01*
G01X17082Y34174D01*
G01X17111Y34139D01*
G01X17154Y34093D01*
G01X17213Y34032D01*
G01X17289Y33954D01*
G01X17533Y33713D01*
G01X17579Y33776D01*
G01X17619Y33834D01*
G01X17646Y33903D01*
G01X17658Y33978D01*
G01X17653Y34056D01*
G01X17650Y34064D01*
G01X17647Y34073D01*
G01X17642Y34082D01*
G01X17636Y34093D01*
G01X17629Y34106D01*
G01X17618Y34120D01*
G01X17607Y34136D01*
G01X17592Y34154D01*
G01X17575Y34174D01*
G01X17555Y34197D01*
G01X17533Y34223D01*
G01X17506Y34251D01*
G01X17477Y34283D01*
G01X17444Y34319D01*
G01X17407Y34358D01*
G01X17365Y34401D01*
G01X17320Y34448D01*
G01X17270Y34500D01*
G01X17215Y34556D01*
G01X17156Y34616D01*
G01X17091Y34682D01*
G01X17021Y34753D01*
G01X16945Y34830D01*
G01X16864Y34911D01*
G01X16777Y34999D01*
G01X16683Y35093D01*
G01X16583Y35194D01*
G01X16476Y35300D01*
G01X16406Y35372D01*
G01X16336Y35441D01*
G01X16268Y35509D01*
G01X16200Y35576D01*
G01X16135Y35641D01*
G01X16070Y35705D01*
G01X16008Y35766D01*
G01X15947Y35826D01*
G01X15887Y35884D01*
G01X15830Y35940D01*
G01X15775Y35994D01*
G01X15722Y36045D01*
G01X15671Y36094D01*
G01X15623Y36141D01*
G01X15576Y36185D01*
G01X15533Y36227D01*
G01X15492Y36266D01*
G01X15453Y36303D01*
G01X15418Y36336D01*
G01X15386Y36367D01*
G01X15356Y36394D01*
G01X15330Y36419D01*
G01X15307Y36440D01*
G01X15287Y36458D01*
G01X15272Y36472D01*
G01X15259Y36483D01*
G01X15250Y36491D01*
G01X15245Y36494D01*
G01X15181Y36511D01*
G37*

%LPD*%
G54D18*
G01X28702Y33628D02*
G01X28702Y68833D01*
G01X28702Y68833D02*
G01X53594Y68833D01*
G01X53594Y68833D02*
G01X53594Y33578D01*
G01X53594Y33527D02*
G01X28752Y33527D01*
G54D10*
G01X34848Y67817D02*
G01X33858Y67817D01*
G01X33858Y52729D01*
G01X47853Y52729D01*
G01X47853Y67131D01*
G01X46863Y67131D01*
G01X46431Y66623D02*
G01X36169Y66623D01*
G54D19*
G01X2538Y65276D02*
G01X2538Y22096D01*
G01X5078Y19556D02*
G01X25398Y19556D01*
G01X27938Y22096D02*
G01X27938Y65276D01*
G01X25398Y67816D02*
G01X19226Y67816D01*
G01X19226Y68816D01*
G01X11250Y68816D01*
G01X11250Y62812D01*
G01X19226Y62812D01*
G01X19226Y67816D01*
G01X5078Y67816D01*
G54D20*
G01X23238Y19556D02*
G01X23238Y43556D01*
G01X7238Y19556D02*
G01X7238Y43556D01*
G01X7238Y43556D02*
G01X23239Y43556D01*
G54D21*
G01X9371Y41432D02*
G01X9371Y26440D01*
G01X21360Y26440D01*
G01X21360Y41432D01*
G01X9371Y41432D01*
G54D22*
G01X20318Y20826D02*
G01X20204Y20826D01*
G01X19048Y20826D01*
G01X19048Y24636D01*
G01X17778Y24636D01*
G01X17778Y20826D01*
G01X16508Y20826D01*
G01X16508Y24636D01*
G01X15238Y24636D01*
G01X15238Y20826D01*
G01X13968Y20826D01*
G01X13968Y24636D01*
G01X12698Y24636D01*
G01X12698Y20826D01*
G01X8888Y20826D01*
G01X20318Y25556D02*
G01X12698Y25556D01*
G01X20318Y20826D02*
G01X20318Y26256D01*
G54D21*
G01X10416Y26090D02*
G01X8416Y26090D01*
G01X8416Y25090D01*
G01X10416Y25090D01*
G01X10416Y26090D01*
G54D10*
G01X38354Y17526D02*
G01X18034Y17526D01*
G01X18034Y1016D01*
G01X38354Y1016D01*
G01X38354Y17526D01*
G01X45974Y20066D02*
G01X45974Y17526D01*
G54D23*
G01X54241Y51227D02*
G01X55331Y51227D01*
G01X54241Y51227D02*
G01X55331Y51641D01*
G01X54241Y52058D02*
G01X55331Y51641D01*
G01X54241Y52058D02*
G01X55331Y52058D01*
G01X54241Y52401D02*
G01X55331Y52401D01*
G01X54500Y53523D02*
G01X54396Y53470D01*
G01X54292Y53368D01*
G01X54241Y53264D01*
G01X54241Y53056D01*
G01X54292Y52952D01*
G01X54396Y52848D01*
G01X54500Y52797D01*
G01X54655Y52743D01*
G01X54914Y52743D01*
G01X55072Y52797D01*
G01X55176Y52848D01*
G01X55280Y52952D01*
G01X55331Y53056D01*
G01X55331Y53264D01*
G01X55280Y53368D01*
G01X55176Y53470D01*
G01X55072Y53523D01*
G01X54241Y53866D02*
G01X55331Y53866D01*
G01X54241Y53866D02*
G01X54241Y54334D01*
G01X54292Y54488D01*
G01X54343Y54542D01*
G01X54447Y54593D01*
G01X54551Y54593D01*
G01X54655Y54542D01*
G01X54709Y54488D01*
G01X54759Y54334D01*
G01X54759Y53866D01*
G01X54759Y54229D02*
G01X55331Y54593D01*
G01X54241Y55248D02*
G01X54292Y55144D01*
G01X54396Y55040D01*
G01X54500Y54989D01*
G01X54655Y54935D01*
G01X54914Y54935D01*
G01X55072Y54989D01*
G01X55176Y55040D01*
G01X55280Y55144D01*
G01X55331Y55248D01*
G01X55331Y55456D01*
G01X55280Y55560D01*
G01X55176Y55664D01*
G01X55072Y55715D01*
G01X54914Y55769D01*
G01X54655Y55769D01*
G01X54500Y55715D01*
G01X54396Y55664D01*
G01X54292Y55560D01*
G01X54241Y55456D01*
G01X54241Y55248D01*
G54D18*
G01X47739Y37324D02*
G01X47810Y37359D01*
G01X47879Y37428D01*
G01X47914Y37499D01*
G01X47914Y37636D01*
G01X47879Y37705D01*
G01X47810Y37776D01*
G01X47739Y37809D01*
G01X47637Y37845D01*
G01X47462Y37845D01*
G01X47358Y37809D01*
G01X47289Y37776D01*
G01X47221Y37705D01*
G01X47185Y37636D01*
G01X47185Y37499D01*
G01X47221Y37428D01*
G01X47289Y37359D01*
G01X47358Y37324D01*
G01X47810Y36613D02*
G01X47879Y36681D01*
G01X47914Y36785D01*
G01X47914Y36923D01*
G01X47879Y37027D01*
G01X47810Y37095D01*
G01X47739Y37095D01*
G01X47670Y37062D01*
G01X47637Y37027D01*
G01X47602Y36958D01*
G01X47533Y36750D01*
G01X47498Y36681D01*
G01X47462Y36646D01*
G01X47393Y36613D01*
G01X47289Y36613D01*
G01X47221Y36681D01*
G01X47185Y36785D01*
G01X47185Y36923D01*
G01X47221Y37027D01*
G01X47289Y37095D01*
G01X45374Y37337D02*
G01X44645Y37337D01*
G01X45374Y37337D02*
G01X45374Y37095D01*
G01X45339Y36991D01*
G01X45270Y36920D01*
G01X45199Y36887D01*
G01X45097Y36851D01*
G01X44922Y36851D01*
G01X44818Y36887D01*
G01X44749Y36920D01*
G01X44681Y36991D01*
G01X44645Y37095D01*
G01X44645Y37337D01*
G01X45374Y36623D02*
G01X44645Y36623D01*
G01X42834Y37845D02*
G01X42105Y37845D01*
G01X42834Y37845D02*
G01X42834Y37603D01*
G01X42799Y37499D01*
G01X42730Y37428D01*
G01X42659Y37395D01*
G01X42557Y37359D01*
G01X42382Y37359D01*
G01X42278Y37395D01*
G01X42209Y37428D01*
G01X42141Y37499D01*
G01X42105Y37603D01*
G01X42105Y37845D01*
G01X42834Y36923D02*
G01X42799Y36994D01*
G01X42730Y37062D01*
G01X42659Y37095D01*
G01X42557Y37131D01*
G01X42382Y37131D01*
G01X42278Y37095D01*
G01X42209Y37062D01*
G01X42141Y36994D01*
G01X42105Y36923D01*
G01X42105Y36785D01*
G01X42141Y36714D01*
G01X42209Y36646D01*
G01X42278Y36613D01*
G01X42382Y36577D01*
G01X42557Y36577D01*
G01X42659Y36613D01*
G01X42730Y36646D01*
G01X42799Y36714D01*
G01X42834Y36785D01*
G01X42834Y36923D01*
G01X35214Y38284D02*
G01X35214Y37903D01*
G01X34937Y38111D01*
G01X34937Y38007D01*
G01X34902Y37936D01*
G01X34866Y37903D01*
G01X34762Y37867D01*
G01X34693Y37867D01*
G01X34589Y37903D01*
G01X34521Y37972D01*
G01X34485Y38076D01*
G01X34485Y38180D01*
G01X34521Y38284D01*
G01X34556Y38317D01*
G01X34625Y38353D01*
G01X34658Y37603D02*
G01X34625Y37639D01*
G01X34589Y37603D01*
G01X34625Y37570D01*
G01X34658Y37603D01*
G01X35214Y37273D02*
G01X35214Y36892D01*
G01X34937Y37098D01*
G01X34937Y36994D01*
G01X34902Y36925D01*
G01X34866Y36892D01*
G01X34762Y36857D01*
G01X34693Y36857D01*
G01X34589Y36892D01*
G01X34521Y36961D01*
G01X34485Y37065D01*
G01X34485Y37169D01*
G01X34521Y37273D01*
G01X34556Y37306D01*
G01X34625Y37342D01*
G01X34970Y36628D02*
G01X34485Y36420D01*
G01X34970Y36211D02*
G01X34485Y36420D01*
G01X32674Y36920D02*
G01X32674Y37268D01*
G01X32362Y37301D01*
G01X32397Y37268D01*
G01X32430Y37164D01*
G01X32430Y37060D01*
G01X32397Y36956D01*
G01X32326Y36887D01*
G01X32222Y36851D01*
G01X32153Y36851D01*
G01X32049Y36887D01*
G01X31981Y36956D01*
G01X31945Y37060D01*
G01X31945Y37164D01*
G01X31981Y37268D01*
G01X32016Y37301D01*
G01X32085Y37337D01*
G01X32430Y36623D02*
G01X31945Y36415D01*
G01X32430Y36206D02*
G01X31945Y36415D01*
G01X40119Y37832D02*
G01X40190Y37867D01*
G01X40259Y37936D01*
G01X40294Y38007D01*
G01X40294Y38144D01*
G01X40259Y38213D01*
G01X40190Y38284D01*
G01X40119Y38317D01*
G01X40017Y38353D01*
G01X39842Y38353D01*
G01X39738Y38317D01*
G01X39669Y38284D01*
G01X39601Y38213D01*
G01X39565Y38144D01*
G01X39565Y38007D01*
G01X39601Y37936D01*
G01X39669Y37867D01*
G01X39738Y37832D01*
G01X40294Y37603D02*
G01X39565Y37603D01*
G01X39565Y37603D02*
G01X39565Y37189D01*
G01X40294Y36961D02*
G01X39565Y36961D01*
G01X40294Y36476D02*
G01X39809Y36961D01*
G01X39982Y36788D02*
G01X39565Y36476D01*
G01X50279Y37324D02*
G01X50350Y37359D01*
G01X50419Y37428D01*
G01X50454Y37499D01*
G01X50454Y37636D01*
G01X50419Y37705D01*
G01X50350Y37776D01*
G01X50279Y37809D01*
G01X50177Y37845D01*
G01X50002Y37845D01*
G01X49898Y37809D01*
G01X49829Y37776D01*
G01X49761Y37705D01*
G01X49725Y37636D01*
G01X49725Y37499D01*
G01X49761Y37428D01*
G01X49829Y37359D01*
G01X49898Y37324D01*
G01X50454Y37095D02*
G01X49725Y37095D01*
G01X50454Y37095D02*
G01X50454Y36854D01*
G01X50419Y36750D01*
G01X50350Y36681D01*
G01X50279Y36646D01*
G01X50177Y36613D01*
G01X50002Y36613D01*
G01X49898Y36646D01*
G01X49829Y36681D01*
G01X49761Y36750D01*
G01X49725Y36854D01*
G01X49725Y37095D01*
G01X37579Y37832D02*
G01X37650Y37867D01*
G01X37719Y37936D01*
G01X37754Y38007D01*
G01X37754Y38144D01*
G01X37719Y38213D01*
G01X37650Y38284D01*
G01X37579Y38317D01*
G01X37477Y38353D01*
G01X37302Y38353D01*
G01X37198Y38317D01*
G01X37129Y38284D01*
G01X37061Y38213D01*
G01X37025Y38144D01*
G01X37025Y38007D01*
G01X37061Y37936D01*
G01X37129Y37867D01*
G01X37198Y37832D01*
G01X37302Y37832D01*
G01X37302Y38007D02*
G01X37302Y37832D01*
G01X37754Y37603D02*
G01X37025Y37603D01*
G01X37754Y37603D02*
G01X37025Y37121D01*
G01X37754Y37121D02*
G01X37025Y37121D01*
G01X37754Y36892D02*
G01X37025Y36892D01*
G01X37754Y36892D02*
G01X37754Y36648D01*
G01X37719Y36544D01*
G01X37650Y36476D01*
G01X37579Y36440D01*
G01X37477Y36407D01*
G01X37302Y36407D01*
G01X37198Y36440D01*
G01X37129Y36476D01*
G01X37061Y36544D01*
G01X37025Y36648D01*
G01X37025Y36892D01*
G01X52357Y59457D02*
G01X52425Y59526D01*
G01X52461Y59630D01*
G01X52461Y59770D01*
G01X52425Y59874D01*
G01X52357Y59943D01*
G01X52285Y59943D01*
G01X52217Y59907D01*
G01X52184Y59874D01*
G01X52148Y59803D01*
G01X52080Y59597D01*
G01X52044Y59526D01*
G01X52009Y59493D01*
G01X51940Y59457D01*
G01X51836Y59457D01*
G01X51767Y59526D01*
G01X51732Y59630D01*
G01X51732Y59770D01*
G01X51767Y59874D01*
G01X51836Y59943D01*
G01X52461Y59229D02*
G01X51732Y59229D01*
G01X52461Y59229D02*
G01X52461Y58916D01*
G01X52425Y58812D01*
G01X52390Y58779D01*
G01X52321Y58744D01*
G01X52217Y58744D01*
G01X52148Y58779D01*
G01X52113Y58812D01*
G01X52080Y58916D01*
G01X52080Y59229D01*
G01X52461Y58515D02*
G01X51732Y58515D01*
G01X52461Y57753D02*
G01X51732Y57753D01*
G01X52461Y57753D02*
G01X51732Y57476D01*
G01X52461Y57199D02*
G01X51732Y57476D01*
G01X52461Y57199D02*
G01X51732Y57199D01*
G01X52461Y56971D02*
G01X52425Y56935D01*
G01X52461Y56902D01*
G01X52494Y56935D01*
G01X52461Y56971D01*
G01X52217Y56935D02*
G01X51732Y56935D01*
G01X52113Y56257D02*
G01X52184Y56326D01*
G01X52217Y56397D01*
G01X52217Y56501D01*
G01X52184Y56570D01*
G01X52113Y56638D01*
G01X52009Y56674D01*
G01X51940Y56674D01*
G01X51836Y56638D01*
G01X51767Y56570D01*
G01X51732Y56501D01*
G01X51732Y56397D01*
G01X51767Y56326D01*
G01X51836Y56257D01*
G01X52217Y56028D02*
G01X51732Y56028D01*
G01X52009Y56028D02*
G01X52113Y55993D01*
G01X52184Y55924D01*
G01X52217Y55856D01*
G01X52217Y55752D01*
G01X52217Y55350D02*
G01X52184Y55419D01*
G01X52113Y55487D01*
G01X52009Y55523D01*
G01X51940Y55523D01*
G01X51836Y55487D01*
G01X51767Y55419D01*
G01X51732Y55350D01*
G01X51732Y55246D01*
G01X51767Y55178D01*
G01X51836Y55106D01*
G01X51940Y55073D01*
G01X52009Y55073D01*
G01X52113Y55106D01*
G01X52184Y55178D01*
G01X52217Y55246D01*
G01X52217Y55350D01*
G01X52357Y53826D02*
G01X52425Y53895D01*
G01X52461Y53999D01*
G01X52461Y54139D01*
G01X52425Y54240D01*
G01X52357Y54311D01*
G01X52285Y54311D01*
G01X52217Y54276D01*
G01X52184Y54240D01*
G01X52148Y54172D01*
G01X52080Y53963D01*
G01X52044Y53895D01*
G01X52009Y53859D01*
G01X51940Y53826D01*
G01X51836Y53826D01*
G01X51767Y53895D01*
G01X51732Y53999D01*
G01X51732Y54139D01*
G01X51767Y54240D01*
G01X51836Y54311D01*
G01X52461Y53598D02*
G01X51732Y53598D01*
G01X52461Y53598D02*
G01X52461Y53354D01*
G01X52425Y53250D01*
G01X52357Y53181D01*
G01X52285Y53148D01*
G01X52184Y53113D01*
G01X52009Y53113D01*
G01X51904Y53148D01*
G01X51836Y53181D01*
G01X51767Y53250D01*
G01X51732Y53354D01*
G01X51732Y53598D01*
G01X52242Y65571D02*
G01X51757Y65571D01*
G01X52034Y65571D02*
G01X52138Y65536D01*
G01X52209Y65467D01*
G01X52242Y65399D01*
G01X52242Y65294D01*
G01X52242Y64893D02*
G01X52209Y64962D01*
G01X52138Y65030D01*
G01X52034Y65066D01*
G01X51965Y65066D01*
G01X51861Y65030D01*
G01X51793Y64962D01*
G01X51757Y64893D01*
G01X51757Y64789D01*
G01X51793Y64720D01*
G01X51861Y64649D01*
G01X51965Y64616D01*
G01X52034Y64616D01*
G01X52138Y64649D01*
G01X52209Y64720D01*
G01X52242Y64789D01*
G01X52242Y64893D01*
G01X52486Y64388D02*
G01X51757Y64388D01*
G01X52138Y64388D02*
G01X52209Y64317D01*
G01X52242Y64248D01*
G01X52242Y64144D01*
G01X52209Y64075D01*
G01X52138Y64007D01*
G01X52034Y63971D01*
G01X51965Y63971D01*
G01X51861Y64007D01*
G01X51793Y64075D01*
G01X51757Y64144D01*
G01X51757Y64248D01*
G01X51793Y64317D01*
G01X51861Y64388D01*
G01X52242Y63570D02*
G01X52209Y63638D01*
G01X52138Y63707D01*
G01X52034Y63742D01*
G01X51965Y63742D01*
G01X51861Y63707D01*
G01X51793Y63638D01*
G01X51757Y63570D01*
G01X51757Y63466D01*
G01X51793Y63397D01*
G01X51861Y63326D01*
G01X51965Y63293D01*
G01X52034Y63293D01*
G01X52138Y63326D01*
G01X52209Y63397D01*
G01X52242Y63466D01*
G01X52242Y63570D01*
G01X52486Y62960D02*
G01X51897Y62960D01*
G01X51793Y62925D01*
G01X51757Y62856D01*
G01X51757Y62787D01*
G01X52242Y63064D02*
G01X52242Y62820D01*
G01X52486Y62142D02*
G01X51757Y62142D01*
G01X52138Y62142D02*
G01X52209Y62211D01*
G01X52242Y62282D01*
G01X52242Y62384D01*
G01X52209Y62455D01*
G01X52138Y62523D01*
G01X52034Y62559D01*
G01X51965Y62559D01*
G01X51861Y62523D01*
G01X51793Y62455D01*
G01X51757Y62384D01*
G01X51757Y62282D01*
G01X51793Y62211D01*
G01X51861Y62142D01*
G01X52242Y61878D02*
G01X51757Y61672D01*
G01X52242Y61464D02*
G01X51757Y61672D01*
G01X51620Y61741D01*
G01X51549Y61810D01*
G01X51516Y61878D01*
G01X51516Y61914D01*
G01X52242Y61235D02*
G01X51757Y61235D01*
G01X52105Y61235D02*
G01X52209Y61131D01*
G01X52242Y61063D01*
G01X52242Y60959D01*
G01X52209Y60888D01*
G01X52105Y60854D01*
G01X51757Y60854D01*
G54D23*
G01X15240Y70711D02*
G01X15240Y69931D01*
G01X15290Y69773D01*
G01X15394Y69672D01*
G01X15552Y69618D01*
G01X15656Y69618D01*
G01X15811Y69672D01*
G01X15915Y69773D01*
G01X15966Y69931D01*
G01X15966Y70711D01*
G01X16309Y70502D02*
G01X16413Y70553D01*
G01X16570Y70711D01*
G01X16570Y69618D01*
G54D11*
G01X13850Y66812D02*
G01X13850Y66128D01*
G01X13896Y65994D01*
G01X13987Y65902D01*
G01X14122Y65857D01*
G01X14213Y65857D01*
G01X14351Y65902D01*
G01X14442Y65994D01*
G01X14488Y66128D01*
G01X14488Y66812D01*
G01X15422Y66677D02*
G01X15331Y66766D01*
G01X15196Y66812D01*
G01X15013Y66812D01*
G01X14876Y66766D01*
G01X14787Y66677D01*
G01X14787Y66583D01*
G01X14833Y66492D01*
G01X14876Y66448D01*
G01X14968Y66400D01*
G01X15242Y66311D01*
G01X15331Y66266D01*
G01X15377Y66220D01*
G01X15422Y66128D01*
G01X15422Y65994D01*
G01X15331Y65902D01*
G01X15196Y65857D01*
G01X15013Y65857D01*
G01X14876Y65902D01*
G01X14787Y65994D01*
G01X15722Y66812D02*
G01X15722Y65857D01*
G01X15722Y66812D02*
G01X16131Y66812D01*
G01X16268Y66766D01*
G01X16314Y66718D01*
G01X16360Y66629D01*
G01X16360Y66537D01*
G01X16314Y66448D01*
G01X16268Y66400D01*
G01X16131Y66360D01*
G01X15722Y66360D02*
G01X16131Y66360D01*
G01X16268Y66311D01*
G01X16314Y66266D01*
G01X16360Y66174D01*
G01X16360Y66042D01*
G01X16314Y65948D01*
G01X16268Y65902D01*
G01X16131Y65857D01*
G01X15722Y65857D01*
G54D22*
G01X8872Y56817D02*
G01X8872Y54912D01*
G01X8872Y56817D02*
G01X10144Y54912D01*
G01X10144Y56817D02*
G01X10144Y54912D01*
G01X11198Y56182D02*
G01X11018Y56088D01*
G01X10835Y55923D01*
G01X10744Y55643D01*
G01X10744Y55453D01*
G01X10835Y55194D01*
G01X11018Y55008D01*
G01X11198Y54912D01*
G01X11473Y54912D01*
G01X11653Y55008D01*
G01X11836Y55194D01*
G01X11927Y55453D01*
G01X11927Y55643D01*
G01X11836Y55923D01*
G01X11653Y56088D01*
G01X11473Y56182D01*
G01X11198Y56182D01*
G01X13616Y56817D02*
G01X13616Y54912D01*
G01X13616Y55923D02*
G01X13436Y56088D01*
G01X13253Y56182D01*
G01X12981Y56182D01*
G01X12799Y56088D01*
G01X12618Y55923D01*
G01X12527Y55643D01*
G01X12527Y55453D01*
G01X12618Y55194D01*
G01X12799Y55008D01*
G01X12981Y54912D01*
G01X13253Y54912D01*
G01X13436Y55008D01*
G01X13616Y55194D01*
G01X14218Y55643D02*
G01X15306Y55643D01*
G01X15306Y55829D01*
G01X15217Y56017D01*
G01X15125Y56088D01*
G01X14945Y56182D01*
G01X14671Y56182D01*
G01X14490Y56088D01*
G01X14307Y55923D01*
G01X14218Y55643D01*
G01X14218Y55453D01*
G01X14307Y55194D01*
G01X14490Y55008D01*
G01X14671Y54912D01*
G01X14945Y54912D01*
G01X15125Y55008D01*
G01X15306Y55194D01*
G01X15908Y56817D02*
G01X15908Y54912D01*
G01X15908Y56817D02*
G01X16637Y54912D01*
G01X17363Y56817D02*
G01X16637Y54912D01*
G01X17363Y56817D02*
G01X17363Y54912D01*
G01X19326Y56370D02*
G01X19235Y56558D01*
G01X19052Y56746D01*
G01X18872Y56817D01*
G01X18508Y56817D01*
G01X18326Y56746D01*
G01X18145Y56558D01*
G01X18054Y56370D01*
G01X17962Y56088D01*
G01X17962Y55643D01*
G01X18054Y55382D01*
G01X18145Y55194D01*
G01X18326Y55008D01*
G01X18508Y54912D01*
G01X18872Y54912D01*
G01X19052Y55008D01*
G01X19235Y55194D01*
G01X19326Y55382D01*
G01X19926Y56817D02*
G01X19926Y55453D01*
G01X20017Y55194D01*
G01X20200Y55008D01*
G01X20472Y54912D01*
G01X20655Y54912D01*
G01X20927Y55008D01*
G01X21107Y55194D01*
G01X21198Y55453D01*
G01X21198Y56817D01*
G54D11*
G01X24650Y61833D02*
G01X24302Y61833D01*
G01X24269Y61521D01*
G01X24302Y61556D01*
G01X24406Y61589D01*
G01X24511Y61589D01*
G01X24615Y61556D01*
G01X24683Y61485D01*
G01X24719Y61381D01*
G01X24719Y61313D01*
G01X24683Y61208D01*
G01X24615Y61140D01*
G01X24511Y61104D01*
G01X24406Y61104D01*
G01X24302Y61140D01*
G01X24269Y61175D01*
G01X24234Y61244D01*
G01X24947Y61833D02*
G01X25224Y61104D01*
G01X25501Y61833D02*
G01X25224Y61104D01*
G01X24076Y59118D02*
G01X24041Y59189D01*
G01X23972Y59255D01*
G01X23901Y59293D01*
G01X23764Y59293D01*
G01X23695Y59255D01*
G01X23624Y59189D01*
G01X23591Y59118D01*
G01X23555Y59016D01*
G01X23555Y58841D01*
G01X23591Y58737D01*
G01X23624Y58668D01*
G01X23695Y58600D01*
G01X23764Y58564D01*
G01X23901Y58564D01*
G01X23972Y58600D01*
G01X24041Y58668D01*
G01X24076Y58737D01*
G01X24076Y58841D01*
G01X23901Y58841D02*
G01X24076Y58841D01*
G01X24305Y59293D02*
G01X24305Y58564D01*
G01X24305Y59293D02*
G01X24787Y58564D01*
G01X24787Y59293D02*
G01X24787Y58564D01*
G01X25016Y59293D02*
G01X25016Y58564D01*
G01X25016Y59293D02*
G01X25260Y59293D01*
G01X25364Y59255D01*
G01X25433Y59189D01*
G01X25468Y59118D01*
G01X25501Y59016D01*
G01X25501Y58841D01*
G01X25468Y58737D01*
G01X25433Y58668D01*
G01X25364Y58600D01*
G01X25260Y58564D01*
G01X25016Y58564D01*
G01X5476Y59065D02*
G01X5440Y59138D01*
G01X5372Y59207D01*
G01X5300Y59242D01*
G01X5163Y59242D01*
G01X5095Y59207D01*
G01X5024Y59138D01*
G01X4991Y59065D01*
G01X4955Y58963D01*
G01X4955Y58790D01*
G01X4991Y58684D01*
G01X5024Y58618D01*
G01X5095Y58549D01*
G01X5163Y58513D01*
G01X5300Y58513D01*
G01X5372Y58549D01*
G01X5440Y58618D01*
G01X5476Y58684D01*
G01X5476Y58790D01*
G01X5300Y58790D02*
G01X5476Y58790D01*
G01X5704Y59242D02*
G01X5704Y58513D01*
G01X5704Y59242D02*
G01X6187Y58513D01*
G01X6187Y59242D02*
G01X6187Y58513D01*
G01X6416Y59242D02*
G01X6416Y58513D01*
G01X6416Y59242D02*
G01X6659Y59242D01*
G01X6764Y59207D01*
G01X6832Y59138D01*
G01X6868Y59065D01*
G01X6901Y58963D01*
G01X6901Y58790D01*
G01X6868Y58684D01*
G01X6832Y58618D01*
G01X6764Y58549D01*
G01X6659Y58513D01*
G01X6416Y58513D01*
G01X5476Y41318D02*
G01X5440Y41389D01*
G01X5372Y41455D01*
G01X5300Y41488D01*
G01X5163Y41488D01*
G01X5095Y41455D01*
G01X5026Y41389D01*
G01X4991Y41318D01*
G01X4955Y41214D01*
G01X4955Y41041D01*
G01X4991Y40937D01*
G01X5026Y40866D01*
G01X5095Y40800D01*
G01X5163Y40759D01*
G01X5300Y40759D01*
G01X5372Y40800D01*
G01X5440Y40866D01*
G01X5476Y40937D01*
G01X5476Y41041D01*
G01X5300Y41041D02*
G01X5476Y41041D01*
G01X5704Y41488D02*
G01X5704Y40759D01*
G01X5704Y41488D02*
G01X6187Y40759D01*
G01X6187Y41488D02*
G01X6187Y40759D01*
G01X6416Y41488D02*
G01X6416Y40759D01*
G01X6416Y41488D02*
G01X6659Y41488D01*
G01X6764Y41455D01*
G01X6832Y41389D01*
G01X6868Y41318D01*
G01X6901Y41214D01*
G01X6901Y41041D01*
G01X6868Y40937D01*
G01X6832Y40866D01*
G01X6764Y40800D01*
G01X6659Y40759D01*
G01X6416Y40759D01*
G01X24076Y48958D02*
G01X24041Y49029D01*
G01X23972Y49095D01*
G01X23901Y49133D01*
G01X23764Y49133D01*
G01X23695Y49095D01*
G01X23624Y49029D01*
G01X23591Y48958D01*
G01X23555Y48856D01*
G01X23555Y48681D01*
G01X23591Y48577D01*
G01X23624Y48508D01*
G01X23695Y48440D01*
G01X23764Y48404D01*
G01X23901Y48404D01*
G01X23972Y48440D01*
G01X24041Y48508D01*
G01X24076Y48577D01*
G01X24076Y48681D01*
G01X23901Y48681D02*
G01X24076Y48681D01*
G01X24305Y49133D02*
G01X24305Y48404D01*
G01X24305Y49133D02*
G01X24787Y48404D01*
G01X24787Y49133D02*
G01X24787Y48404D01*
G01X25016Y49133D02*
G01X25016Y48404D01*
G01X25016Y49133D02*
G01X25260Y49133D01*
G01X25364Y49095D01*
G01X25433Y49029D01*
G01X25468Y48958D01*
G01X25501Y48856D01*
G01X25501Y48681D01*
G01X25468Y48577D01*
G01X25433Y48508D01*
G01X25364Y48440D01*
G01X25260Y48404D01*
G01X25016Y48404D01*
G01X5024Y61833D02*
G01X5405Y61833D01*
G01X5196Y61556D01*
G01X5300Y61556D01*
G01X5372Y61521D01*
G01X5405Y61485D01*
G01X5440Y61381D01*
G01X5440Y61313D01*
G01X5405Y61208D01*
G01X5336Y61140D01*
G01X5232Y61104D01*
G01X5128Y61104D01*
G01X5024Y61140D01*
G01X4991Y61175D01*
G01X4955Y61244D01*
G01X5669Y61833D02*
G01X5946Y61104D01*
G01X6223Y61833D02*
G01X5946Y61104D01*
G01X6520Y61833D02*
G01X6901Y61833D01*
G01X6695Y61556D01*
G01X6797Y61556D01*
G01X6868Y61521D01*
G01X6901Y61485D01*
G01X6936Y61381D01*
G01X6936Y61313D01*
G01X6901Y61208D01*
G01X6832Y61140D01*
G01X6728Y61104D01*
G01X6624Y61104D01*
G01X6520Y61140D01*
G01X6487Y61175D01*
G01X6451Y61244D01*
G01X5026Y39047D02*
G01X5407Y39047D01*
G01X5196Y38770D01*
G01X5300Y38770D01*
G01X5372Y38735D01*
G01X5407Y38699D01*
G01X5440Y38595D01*
G01X5440Y38524D01*
G01X5407Y38420D01*
G01X5336Y38354D01*
G01X5232Y38318D01*
G01X5128Y38318D01*
G01X5026Y38354D01*
G01X4991Y38389D01*
G01X4955Y38458D01*
G01X5669Y39047D02*
G01X5946Y38318D01*
G01X6223Y39047D02*
G01X5946Y38318D01*
G01X6520Y39047D02*
G01X6901Y39047D01*
G01X6695Y38770D01*
G01X6797Y38770D01*
G01X6868Y38735D01*
G01X6901Y38699D01*
G01X6936Y38595D01*
G01X6936Y38524D01*
G01X6901Y38420D01*
G01X6832Y38354D01*
G01X6728Y38318D01*
G01X6624Y38318D01*
G01X6520Y38354D01*
G01X6487Y38389D01*
G01X6451Y38458D01*
G01X23588Y51673D02*
G01X23969Y51673D01*
G01X23761Y51396D01*
G01X23865Y51396D01*
G01X23936Y51361D01*
G01X23969Y51325D01*
G01X24005Y51221D01*
G01X24005Y51153D01*
G01X23969Y51048D01*
G01X23901Y50980D01*
G01X23797Y50944D01*
G01X23693Y50944D01*
G01X23588Y50980D01*
G01X23555Y51015D01*
G01X23520Y51084D01*
G01X24234Y51673D02*
G01X24511Y50944D01*
G01X24787Y51673D02*
G01X24511Y50944D01*
G01X25085Y51673D02*
G01X25466Y51673D01*
G01X25260Y51396D01*
G01X25361Y51396D01*
G01X25433Y51361D01*
G01X25466Y51325D01*
G01X25501Y51221D01*
G01X25501Y51153D01*
G01X25466Y51048D01*
G01X25397Y50980D01*
G01X25293Y50944D01*
G01X25189Y50944D01*
G01X25085Y50980D01*
G01X25052Y51015D01*
G01X25016Y51084D01*
G01X5196Y56842D02*
G01X5196Y56113D01*
G01X4955Y56842D02*
G01X5440Y56842D01*
G01X5669Y56842D02*
G01X6154Y56113D01*
G01X6154Y56842D02*
G01X5669Y56113D01*
G01X4955Y54195D02*
G01X4955Y53467D01*
G01X4955Y54195D02*
G01X5267Y54195D01*
G01X5372Y54160D01*
G01X5405Y54124D01*
G01X5440Y54056D01*
G01X5440Y53985D01*
G01X5405Y53919D01*
G01X5372Y53883D01*
G01X5267Y53848D01*
G01X4955Y53848D01*
G01X5196Y53848D02*
G01X5440Y53467D01*
G01X5669Y54195D02*
G01X6154Y53467D01*
G01X6154Y54195D02*
G01X5669Y53467D01*
G01X4955Y51732D02*
G01X4955Y51003D01*
G01X4955Y51732D02*
G01X5196Y51732D01*
G01X5300Y51699D01*
G01X5372Y51628D01*
G01X5405Y51559D01*
G01X5440Y51457D01*
G01X5440Y51280D01*
G01X5405Y51178D01*
G01X5372Y51109D01*
G01X5300Y51041D01*
G01X5196Y51003D01*
G01X4955Y51003D01*
G01X5842Y51732D02*
G01X5737Y51699D01*
G01X5704Y51628D01*
G01X5704Y51559D01*
G01X5737Y51490D01*
G01X5806Y51457D01*
G01X5946Y51422D01*
G01X6050Y51384D01*
G01X6118Y51318D01*
G01X6154Y51247D01*
G01X6154Y51145D01*
G01X6118Y51076D01*
G01X6085Y51041D01*
G01X5981Y51003D01*
G01X5842Y51003D01*
G01X5737Y51041D01*
G01X5704Y51076D01*
G01X5669Y51145D01*
G01X5669Y51247D01*
G01X5704Y51318D01*
G01X5773Y51384D01*
G01X5877Y51422D01*
G01X6014Y51457D01*
G01X6085Y51490D01*
G01X6118Y51559D01*
G01X6118Y51628D01*
G01X6085Y51699D01*
G01X5981Y51732D01*
G01X5842Y51732D01*
G01X4955Y49143D02*
G01X4955Y48414D01*
G01X4955Y49143D02*
G01X5196Y49143D01*
G01X5300Y49108D01*
G01X5372Y49039D01*
G01X5405Y48968D01*
G01X5440Y48867D01*
G01X5440Y48691D01*
G01X5405Y48587D01*
G01X5372Y48516D01*
G01X5300Y48450D01*
G01X5196Y48414D01*
G01X4955Y48414D01*
G01X6154Y49143D02*
G01X5806Y48414D01*
G01X5669Y49143D02*
G01X6154Y49143D01*
G01X4955Y46642D02*
G01X4955Y45913D01*
G01X4955Y46642D02*
G01X5196Y46642D01*
G01X5300Y46606D01*
G01X5372Y46537D01*
G01X5405Y46469D01*
G01X5440Y46365D01*
G01X5440Y46189D01*
G01X5405Y46088D01*
G01X5372Y46017D01*
G01X5300Y45946D01*
G01X5196Y45913D01*
G01X4955Y45913D01*
G01X6085Y46537D02*
G01X6050Y46606D01*
G01X5946Y46642D01*
G01X5877Y46642D01*
G01X5773Y46606D01*
G01X5704Y46504D01*
G01X5669Y46327D01*
G01X5669Y46156D01*
G01X5704Y46017D01*
G01X5773Y45946D01*
G01X5877Y45913D01*
G01X5910Y45913D01*
G01X6014Y45946D01*
G01X6085Y46017D01*
G01X6118Y46123D01*
G01X6118Y46156D01*
G01X6085Y46261D01*
G01X6014Y46327D01*
G01X5910Y46365D01*
G01X5877Y46365D01*
G01X5773Y46327D01*
G01X5704Y46261D01*
G01X5669Y46156D01*
G01X4955Y44112D02*
G01X4955Y43383D01*
G01X4955Y44112D02*
G01X5196Y44112D01*
G01X5300Y44079D01*
G01X5372Y44008D01*
G01X5405Y43939D01*
G01X5440Y43837D01*
G01X5440Y43660D01*
G01X5405Y43558D01*
G01X5372Y43489D01*
G01X5300Y43421D01*
G01X5196Y43383D01*
G01X4955Y43383D01*
G01X6085Y44112D02*
G01X5737Y44112D01*
G01X5704Y43802D01*
G01X5737Y43837D01*
G01X5842Y43870D01*
G01X5946Y43870D01*
G01X6050Y43837D01*
G01X6118Y43764D01*
G01X6154Y43660D01*
G01X6154Y43594D01*
G01X6118Y43489D01*
G01X6050Y43421D01*
G01X5946Y43383D01*
G01X5842Y43383D01*
G01X5737Y43421D01*
G01X5704Y43456D01*
G01X5669Y43525D01*
G01X4955Y36443D02*
G01X4955Y35714D01*
G01X4955Y36443D02*
G01X5196Y36443D01*
G01X5300Y36408D01*
G01X5372Y36339D01*
G01X5405Y36268D01*
G01X5440Y36167D01*
G01X5440Y35991D01*
G01X5405Y35887D01*
G01X5372Y35816D01*
G01X5300Y35750D01*
G01X5196Y35714D01*
G01X4955Y35714D01*
G01X6014Y36443D02*
G01X5669Y35958D01*
G01X6187Y35958D01*
G01X6014Y36443D02*
G01X6014Y35714D01*
G01X4955Y33903D02*
G01X4955Y33174D01*
G01X4955Y33903D02*
G01X5196Y33903D01*
G01X5300Y33868D01*
G01X5372Y33799D01*
G01X5405Y33726D01*
G01X5440Y33627D01*
G01X5440Y33451D01*
G01X5405Y33345D01*
G01X5372Y33276D01*
G01X5300Y33210D01*
G01X5196Y33174D01*
G01X4955Y33174D01*
G01X5737Y33903D02*
G01X6118Y33903D01*
G01X5910Y33627D01*
G01X6014Y33627D01*
G01X6085Y33591D01*
G01X6118Y33555D01*
G01X6154Y33451D01*
G01X6154Y33380D01*
G01X6118Y33276D01*
G01X6050Y33210D01*
G01X5946Y33174D01*
G01X5842Y33174D01*
G01X5737Y33210D01*
G01X5704Y33246D01*
G01X5669Y33312D01*
G01X4955Y31412D02*
G01X4955Y30683D01*
G01X4955Y31412D02*
G01X5196Y31412D01*
G01X5300Y31376D01*
G01X5372Y31308D01*
G01X5405Y31239D01*
G01X5440Y31137D01*
G01X5440Y30960D01*
G01X5405Y30858D01*
G01X5372Y30789D01*
G01X5300Y30721D01*
G01X5196Y30683D01*
G01X4955Y30683D01*
G01X5704Y31239D02*
G01X5704Y31275D01*
G01X5737Y31341D01*
G01X5773Y31376D01*
G01X5842Y31412D01*
G01X5981Y31412D01*
G01X6050Y31376D01*
G01X6085Y31341D01*
G01X6118Y31275D01*
G01X6118Y31206D01*
G01X6085Y31137D01*
G01X6014Y31031D01*
G01X5669Y30683D01*
G01X6154Y30683D01*
G01X4978Y28864D02*
G01X4978Y28133D01*
G01X4978Y28864D02*
G01X5219Y28864D01*
G01X5323Y28829D01*
G01X5394Y28760D01*
G01X5427Y28689D01*
G01X5463Y28585D01*
G01X5463Y28412D01*
G01X5427Y28308D01*
G01X5394Y28237D01*
G01X5323Y28168D01*
G01X5219Y28133D01*
G01X4978Y28133D01*
G01X5692Y28724D02*
G01X5760Y28760D01*
G01X5864Y28864D01*
G01X5864Y28133D01*
G01X23588Y56753D02*
G01X23588Y56024D01*
G01X23588Y56753D02*
G01X23901Y56753D01*
G01X24005Y56715D01*
G01X24038Y56682D01*
G01X24074Y56614D01*
G01X24074Y56545D01*
G01X24038Y56476D01*
G01X24005Y56441D01*
G01X23901Y56405D01*
G01X23588Y56405D01*
G01X23830Y56405D02*
G01X24074Y56024D01*
G01X24787Y56649D02*
G01X24719Y56715D01*
G01X24615Y56753D01*
G01X24475Y56753D01*
G01X24371Y56715D01*
G01X24302Y56649D01*
G01X24302Y56578D01*
G01X24338Y56509D01*
G01X24371Y56476D01*
G01X24439Y56441D01*
G01X24648Y56372D01*
G01X24719Y56334D01*
G01X24752Y56301D01*
G01X24787Y56233D01*
G01X24787Y56128D01*
G01X24719Y56060D01*
G01X24615Y56024D01*
G01X24475Y56024D01*
G01X24371Y56060D01*
G01X24302Y56128D01*
G01X25257Y56753D02*
G01X25257Y56024D01*
G01X25016Y56753D02*
G01X25501Y56753D01*
G01X24338Y54213D02*
G01X24338Y53484D01*
G01X24338Y54213D02*
G01X24787Y54213D01*
G01X24338Y53865D02*
G01X24615Y53865D01*
G01X24338Y53484D02*
G01X24787Y53484D01*
G01X25016Y54213D02*
G01X25016Y53484D01*
G01X25016Y54213D02*
G01X25501Y53484D01*
G01X25501Y54213D02*
G01X25501Y53484D01*
G01X24145Y46418D02*
G01X24109Y46489D01*
G01X24041Y46555D01*
G01X23969Y46593D01*
G01X23832Y46593D01*
G01X23764Y46555D01*
G01X23693Y46489D01*
G01X23660Y46418D01*
G01X23624Y46316D01*
G01X23624Y46141D01*
G01X23660Y46037D01*
G01X23693Y45968D01*
G01X23764Y45900D01*
G01X23832Y45864D01*
G01X23969Y45864D01*
G01X24041Y45900D01*
G01X24109Y45968D01*
G01X24145Y46037D01*
G01X24373Y46593D02*
G01X24373Y45864D01*
G01X24373Y45864D02*
G01X24787Y45864D01*
G01X25016Y46593D02*
G01X25016Y45864D01*
G01X25501Y46593D02*
G01X25016Y46108D01*
G01X25189Y46281D02*
G01X25501Y45864D01*
G01X24074Y43949D02*
G01X24005Y44015D01*
G01X23901Y44053D01*
G01X23761Y44053D01*
G01X23657Y44015D01*
G01X23588Y43949D01*
G01X23588Y43878D01*
G01X23624Y43809D01*
G01X23657Y43776D01*
G01X23728Y43741D01*
G01X23934Y43672D01*
G01X24005Y43634D01*
G01X24038Y43601D01*
G01X24074Y43533D01*
G01X24074Y43428D01*
G01X24005Y43360D01*
G01X23901Y43324D01*
G01X23761Y43324D01*
G01X23657Y43360D01*
G01X23588Y43428D01*
G01X24302Y44053D02*
G01X24302Y43324D01*
G01X24302Y44053D02*
G01X24544Y44053D01*
G01X24648Y44015D01*
G01X24719Y43949D01*
G01X24752Y43878D01*
G01X24787Y43776D01*
G01X24787Y43601D01*
G01X24752Y43497D01*
G01X24719Y43428D01*
G01X24648Y43360D01*
G01X24544Y43324D01*
G01X24302Y43324D01*
G01X25224Y44053D02*
G01X25120Y44015D01*
G01X25049Y43914D01*
G01X25016Y43741D01*
G01X25016Y43634D01*
G01X25049Y43464D01*
G01X25120Y43360D01*
G01X25224Y43324D01*
G01X25293Y43324D01*
G01X25397Y43360D01*
G01X25466Y43464D01*
G01X25501Y43634D01*
G01X25501Y43741D01*
G01X25466Y43914D01*
G01X25397Y44015D01*
G01X25293Y44053D01*
G01X25224Y44053D01*
G01X24005Y41338D02*
G01X23969Y41409D01*
G01X23901Y41475D01*
G01X23830Y41513D01*
G01X23693Y41513D01*
G01X23624Y41475D01*
G01X23553Y41409D01*
G01X23520Y41338D01*
G01X23484Y41236D01*
G01X23484Y41061D01*
G01X23520Y40957D01*
G01X23553Y40888D01*
G01X23624Y40820D01*
G01X23693Y40784D01*
G01X23830Y40784D01*
G01X23901Y40820D01*
G01X23969Y40888D01*
G01X24005Y40957D01*
G01X24234Y41513D02*
G01X24234Y40784D01*
G01X24234Y41513D02*
G01X24511Y40784D01*
G01X24787Y41513D02*
G01X24511Y40784D01*
G01X24787Y41513D02*
G01X24787Y40784D01*
G01X25016Y41513D02*
G01X25016Y40784D01*
G01X25016Y41513D02*
G01X25257Y41513D01*
G01X25361Y41475D01*
G01X25430Y41409D01*
G01X25466Y41338D01*
G01X25501Y41236D01*
G01X25501Y41061D01*
G01X25466Y40957D01*
G01X25430Y40888D01*
G01X25361Y40820D01*
G01X25257Y40784D01*
G01X25016Y40784D01*
G01X24386Y38869D02*
G01X24317Y38935D01*
G01X24213Y38973D01*
G01X24074Y38973D01*
G01X23969Y38935D01*
G01X23901Y38869D01*
G01X23901Y38798D01*
G01X23936Y38729D01*
G01X23969Y38696D01*
G01X24041Y38661D01*
G01X24246Y38592D01*
G01X24317Y38554D01*
G01X24350Y38521D01*
G01X24386Y38453D01*
G01X24386Y38348D01*
G01X24317Y38280D01*
G01X24213Y38244D01*
G01X24074Y38244D01*
G01X23969Y38280D01*
G01X23901Y38348D01*
G01X24615Y38973D02*
G01X24615Y38244D01*
G01X24615Y38973D02*
G01X24856Y38973D01*
G01X24960Y38935D01*
G01X25031Y38869D01*
G01X25064Y38798D01*
G01X25100Y38696D01*
G01X25100Y38521D01*
G01X25064Y38417D01*
G01X25031Y38348D01*
G01X24960Y38280D01*
G01X24856Y38244D01*
G01X24615Y38244D01*
G01X25328Y38834D02*
G01X25397Y38869D01*
G01X25501Y38973D01*
G01X25501Y38244D01*
G01X24041Y36329D02*
G01X23972Y36395D01*
G01X23868Y36433D01*
G01X23728Y36433D01*
G01X23624Y36395D01*
G01X23555Y36329D01*
G01X23555Y36258D01*
G01X23591Y36189D01*
G01X23624Y36156D01*
G01X23695Y36121D01*
G01X23901Y36052D01*
G01X23972Y36014D01*
G01X24005Y35981D01*
G01X24041Y35913D01*
G01X24041Y35808D01*
G01X23972Y35740D01*
G01X23868Y35704D01*
G01X23728Y35704D01*
G01X23624Y35740D01*
G01X23555Y35808D01*
G01X24269Y36433D02*
G01X24269Y35704D01*
G01X24269Y36433D02*
G01X24511Y36433D01*
G01X24615Y36395D01*
G01X24686Y36329D01*
G01X24719Y36258D01*
G01X24754Y36156D01*
G01X24754Y35981D01*
G01X24719Y35877D01*
G01X24686Y35808D01*
G01X24615Y35740D01*
G01X24511Y35704D01*
G01X24269Y35704D01*
G01X25016Y36258D02*
G01X25016Y36294D01*
G01X25052Y36362D01*
G01X25087Y36395D01*
G01X25156Y36433D01*
G01X25295Y36433D01*
G01X25364Y36395D01*
G01X25397Y36362D01*
G01X25433Y36294D01*
G01X25433Y36225D01*
G01X25397Y36156D01*
G01X25328Y36052D01*
G01X24983Y35704D01*
G01X25468Y35704D01*
G01X24074Y33787D02*
G01X24005Y33855D01*
G01X23901Y33893D01*
G01X23761Y33893D01*
G01X23657Y33855D01*
G01X23588Y33787D01*
G01X23588Y33718D01*
G01X23624Y33649D01*
G01X23657Y33616D01*
G01X23728Y33581D01*
G01X23934Y33512D01*
G01X24005Y33474D01*
G01X24038Y33439D01*
G01X24074Y33373D01*
G01X24074Y33268D01*
G01X24005Y33200D01*
G01X23901Y33164D01*
G01X23761Y33164D01*
G01X23657Y33200D01*
G01X23588Y33268D01*
G01X24302Y33893D02*
G01X24302Y33164D01*
G01X24302Y33893D02*
G01X24544Y33893D01*
G01X24648Y33855D01*
G01X24719Y33787D01*
G01X24752Y33718D01*
G01X24787Y33616D01*
G01X24787Y33439D01*
G01X24752Y33337D01*
G01X24719Y33268D01*
G01X24648Y33200D01*
G01X24544Y33164D01*
G01X24302Y33164D01*
G01X25085Y33893D02*
G01X25466Y33893D01*
G01X25257Y33616D01*
G01X25361Y33616D01*
G01X25430Y33581D01*
G01X25466Y33545D01*
G01X25501Y33439D01*
G01X25501Y33373D01*
G01X25466Y33268D01*
G01X25397Y33200D01*
G01X25293Y33164D01*
G01X25189Y33164D01*
G01X25085Y33200D01*
G01X25049Y33235D01*
G01X25016Y33304D01*
G01X23520Y31353D02*
G01X23520Y30624D01*
G01X23520Y31353D02*
G01X23832Y31353D01*
G01X23936Y31315D01*
G01X23969Y31280D01*
G01X24005Y31214D01*
G01X24005Y31145D01*
G01X23969Y31076D01*
G01X23936Y31041D01*
G01X23832Y31005D01*
G01X23520Y31005D01*
G01X23761Y31005D02*
G01X24005Y30624D01*
G01X24719Y31247D02*
G01X24650Y31315D01*
G01X24546Y31353D01*
G01X24406Y31353D01*
G01X24302Y31315D01*
G01X24234Y31247D01*
G01X24234Y31178D01*
G01X24269Y31109D01*
G01X24302Y31076D01*
G01X24371Y31041D01*
G01X24579Y30972D01*
G01X24650Y30934D01*
G01X24683Y30899D01*
G01X24719Y30833D01*
G01X24719Y30728D01*
G01X24650Y30660D01*
G01X24546Y30624D01*
G01X24406Y30624D01*
G01X24302Y30660D01*
G01X24234Y30728D01*
G01X24947Y31353D02*
G01X25224Y30624D01*
G01X25501Y31353D02*
G01X25224Y30624D01*
G01X23520Y28813D02*
G01X23520Y28084D01*
G01X23520Y28813D02*
G01X23832Y28813D01*
G01X23936Y28775D01*
G01X23969Y28740D01*
G01X24005Y28674D01*
G01X24005Y28605D01*
G01X23969Y28536D01*
G01X23936Y28501D01*
G01X23832Y28465D01*
G01X23520Y28465D01*
G01X23761Y28465D02*
G01X24005Y28084D01*
G01X24719Y28707D02*
G01X24650Y28775D01*
G01X24546Y28813D01*
G01X24406Y28813D01*
G01X24302Y28775D01*
G01X24234Y28707D01*
G01X24234Y28638D01*
G01X24269Y28569D01*
G01X24302Y28536D01*
G01X24371Y28501D01*
G01X24579Y28432D01*
G01X24650Y28394D01*
G01X24683Y28359D01*
G01X24719Y28293D01*
G01X24719Y28188D01*
G01X24650Y28120D01*
G01X24546Y28084D01*
G01X24406Y28084D01*
G01X24302Y28120D01*
G01X24234Y28188D01*
G01X24947Y28813D02*
G01X25224Y28084D01*
G01X25501Y28813D02*
G01X25224Y28084D01*
G01X24178Y26273D02*
G01X23901Y25544D01*
G01X24178Y26273D02*
G01X24455Y25544D01*
G01X24005Y25786D02*
G01X24350Y25786D01*
G01X24892Y26273D02*
G01X24787Y26235D01*
G01X24719Y26134D01*
G01X24683Y25961D01*
G01X24683Y25854D01*
G01X24719Y25684D01*
G01X24787Y25580D01*
G01X24892Y25544D01*
G01X24960Y25544D01*
G01X25064Y25580D01*
G01X25133Y25684D01*
G01X25168Y25854D01*
G01X25168Y25961D01*
G01X25133Y26134D01*
G01X25064Y26235D01*
G01X24960Y26273D01*
G01X24892Y26273D01*
G01X11176Y38889D02*
G01X11176Y38031D01*
G01X11176Y38889D02*
G01X11709Y38889D01*
G01X11176Y38483D02*
G01X11506Y38483D01*
G01X11176Y38031D02*
G01X11709Y38031D01*
G01X12552Y38770D02*
G01X12471Y38849D01*
G01X12349Y38889D01*
G01X12184Y38889D01*
G01X12062Y38849D01*
G01X11981Y38770D01*
G01X11981Y38689D01*
G01X12019Y38605D01*
G01X12062Y38564D01*
G01X12143Y38524D01*
G01X12390Y38442D01*
G01X12471Y38402D01*
G01X12509Y38361D01*
G01X12552Y38277D01*
G01X12552Y38155D01*
G01X12471Y38074D01*
G01X12349Y38031D01*
G01X12184Y38031D01*
G01X12062Y38074D01*
G01X11981Y38155D01*
G01X12821Y38889D02*
G01X12821Y38031D01*
G01X12821Y38889D02*
G01X13190Y38889D01*
G01X13314Y38849D01*
G01X13352Y38811D01*
G01X13395Y38729D01*
G01X13395Y38605D01*
G01X13352Y38524D01*
G01X13314Y38483D01*
G01X13190Y38442D01*
G01X12821Y38442D01*
G01X13870Y38889D02*
G01X13746Y38849D01*
G01X13703Y38770D01*
G01X13703Y38689D01*
G01X13746Y38605D01*
G01X13827Y38564D01*
G01X13992Y38524D01*
G01X14112Y38483D01*
G01X14196Y38402D01*
G01X14239Y38318D01*
G01X14239Y38196D01*
G01X14196Y38115D01*
G01X14157Y38074D01*
G01X14033Y38031D01*
G01X13870Y38031D01*
G01X13746Y38074D01*
G01X13703Y38115D01*
G01X13665Y38196D01*
G01X13665Y38318D01*
G01X13703Y38402D01*
G01X13789Y38483D01*
G01X13909Y38524D01*
G01X14074Y38564D01*
G01X14157Y38605D01*
G01X14196Y38689D01*
G01X14196Y38770D01*
G01X14157Y38849D01*
G01X14033Y38889D01*
G01X13870Y38889D01*
G01X14549Y38689D02*
G01X14549Y38729D01*
G01X14587Y38811D01*
G01X14630Y38849D01*
G01X14714Y38889D01*
G01X14874Y38889D01*
G01X14955Y38849D01*
G01X14998Y38811D01*
G01X15036Y38729D01*
G01X15036Y38648D01*
G01X14998Y38564D01*
G01X14917Y38442D01*
G01X14508Y38031D01*
G01X15079Y38031D01*
G01X15841Y38770D02*
G01X15798Y38849D01*
G01X15679Y38889D01*
G01X15593Y38889D01*
G01X15473Y38849D01*
G01X15392Y38729D01*
G01X15349Y38524D01*
G01X15349Y38318D01*
G01X15392Y38155D01*
G01X15473Y38074D01*
G01X15593Y38031D01*
G01X15636Y38031D01*
G01X15760Y38074D01*
G01X15841Y38155D01*
G01X15882Y38277D01*
G01X15882Y38318D01*
G01X15841Y38442D01*
G01X15760Y38524D01*
G01X15636Y38564D01*
G01X15593Y38564D01*
G01X15473Y38524D01*
G01X15392Y38442D01*
G01X15349Y38318D01*
G01X16644Y38770D02*
G01X16603Y38849D01*
G01X16476Y38889D01*
G01X16398Y38889D01*
G01X16273Y38849D01*
G01X16192Y38729D01*
G01X16151Y38524D01*
G01X16151Y38318D01*
G01X16192Y38155D01*
G01X16273Y38074D01*
G01X16398Y38031D01*
G01X16438Y38031D01*
G01X16560Y38074D01*
G01X16644Y38155D01*
G01X16682Y38277D01*
G01X16682Y38318D01*
G01X16644Y38442D01*
G01X16560Y38524D01*
G01X16438Y38564D01*
G01X16398Y38564D01*
G01X16273Y38524D01*
G01X16192Y38442D01*
G01X16151Y38318D01*
G01X16954Y38402D02*
G01X17688Y38402D01*
G01X17957Y38729D02*
G01X18044Y38770D01*
G01X18163Y38889D01*
G01X18163Y38031D01*
G01X18475Y38689D02*
G01X18475Y38729D01*
G01X18514Y38811D01*
G01X18557Y38849D01*
G01X18638Y38889D01*
G01X18803Y38889D01*
G01X18884Y38849D01*
G01X18923Y38811D01*
G01X18968Y38729D01*
G01X18968Y38648D01*
G01X18923Y38564D01*
G01X18841Y38442D01*
G01X18432Y38031D01*
G01X19009Y38031D01*
G01X19276Y38889D02*
G01X19276Y38031D01*
G01X19276Y38889D02*
G01X19809Y38889D01*
G01X19276Y38483D02*
G01X19603Y38483D01*
G01X19276Y38031D02*
G01X19809Y38031D01*
G01X12306Y53007D02*
G01X11760Y51546D01*
G01X12306Y53007D02*
G01X12849Y51546D01*
G01X11965Y52021D02*
G01X12646Y52021D01*
G01X13301Y53007D02*
G01X13301Y51546D01*
G01X13301Y53007D02*
G01X13845Y51546D01*
G01X14391Y53007D02*
G01X13845Y51546D01*
G01X14391Y53007D02*
G01X14391Y51546D01*
G01X14841Y53007D02*
G01X14841Y51546D01*
G01X16314Y52656D02*
G01X16245Y52783D01*
G01X16111Y52910D01*
G01X15974Y53007D01*
G01X15702Y53007D01*
G01X15565Y52910D01*
G01X15427Y52783D01*
G01X15359Y52656D01*
G01X15290Y52435D01*
G01X15290Y52118D01*
G01X15359Y51894D01*
G01X15427Y51767D01*
G01X15565Y51640D01*
G01X15702Y51546D01*
G01X15974Y51546D01*
G01X16111Y51640D01*
G01X16245Y51767D01*
G01X16314Y51894D01*
G01X17310Y53007D02*
G01X16764Y51546D01*
G01X17310Y53007D02*
G01X17856Y51546D01*
G01X16969Y52021D02*
G01X17650Y52021D01*
G01X12603Y64861D02*
G01X12603Y64226D01*
G01X12603Y64678D02*
G01X12740Y64818D01*
G01X12829Y64861D01*
G01X12966Y64861D01*
G01X13058Y64818D01*
G01X13103Y64678D01*
G01X13103Y64226D01*
G01X13103Y64678D02*
G01X13241Y64818D01*
G01X13329Y64861D01*
G01X13467Y64861D01*
G01X13558Y64818D01*
G01X13604Y64678D01*
G01X13604Y64226D01*
G01X13903Y65181D02*
G01X13949Y65135D01*
G01X13995Y65181D01*
G01X13949Y65224D01*
G01X13903Y65181D01*
G01X13949Y64861D02*
G01X13949Y64226D01*
G01X14838Y64726D02*
G01X14749Y64818D01*
G01X14658Y64861D01*
G01X14521Y64861D01*
G01X14429Y64818D01*
G01X14340Y64726D01*
G01X14295Y64589D01*
G01X14295Y64495D01*
G01X14340Y64361D01*
G01X14429Y64272D01*
G01X14521Y64226D01*
G01X14658Y64226D01*
G01X14749Y64272D01*
G01X14838Y64361D01*
G01X15140Y64861D02*
G01X15140Y64226D01*
G01X15140Y64589D02*
G01X15184Y64726D01*
G01X15275Y64818D01*
G01X15367Y64861D01*
G01X15504Y64861D01*
G01X16029Y64861D02*
G01X15941Y64818D01*
G01X15849Y64726D01*
G01X15803Y64589D01*
G01X15803Y64495D01*
G01X15849Y64361D01*
G01X15941Y64272D01*
G01X16029Y64226D01*
G01X16167Y64226D01*
G01X16258Y64272D01*
G01X16349Y64361D01*
G01X16393Y64495D01*
G01X16393Y64589D01*
G01X16349Y64726D01*
G01X16258Y64818D01*
G01X16167Y64861D01*
G01X16029Y64861D01*
G01X17393Y65181D02*
G01X17393Y64226D01*
G01X17393Y65181D02*
G01X17802Y65181D01*
G01X17940Y65135D01*
G01X17985Y65090D01*
G01X18031Y64996D01*
G01X18031Y64907D01*
G01X17985Y64818D01*
G01X17940Y64772D01*
G01X17802Y64726D01*
G01X17393Y64726D02*
G01X17802Y64726D01*
G01X17940Y64678D01*
G01X17985Y64635D01*
G01X18031Y64543D01*
G01X18031Y64409D01*
G01X17985Y64317D01*
G01X17940Y64272D01*
G01X17802Y64226D01*
G01X17393Y64226D01*
G01X4978Y26324D02*
G01X4978Y25593D01*
G01X4978Y26324D02*
G01X5219Y26324D01*
G01X5323Y26289D01*
G01X5394Y26220D01*
G01X5427Y26149D01*
G01X5463Y26045D01*
G01X5463Y25872D01*
G01X5427Y25768D01*
G01X5394Y25697D01*
G01X5323Y25628D01*
G01X5219Y25593D01*
G01X4978Y25593D01*
G01X5900Y26324D02*
G01X5796Y26289D01*
G01X5727Y26184D01*
G01X5692Y26009D01*
G01X5692Y25908D01*
G01X5727Y25735D01*
G01X5796Y25628D01*
G01X5900Y25593D01*
G01X5969Y25593D01*
G01X6073Y25628D01*
G01X6141Y25735D01*
G01X6177Y25908D01*
G01X6177Y26009D01*
G01X6141Y26184D01*
G01X6073Y26289D01*
G01X5969Y26324D01*
G01X5900Y26324D01*
G54D23*
G01X26670Y6035D02*
G01X27759Y6035D01*
G01X26670Y6035D02*
G01X26670Y6502D01*
G01X26720Y6657D01*
G01X26771Y6710D01*
G01X26875Y6761D01*
G01X27033Y6761D01*
G01X27137Y6710D01*
G01X27188Y6657D01*
G01X27241Y6502D01*
G01X27241Y6035D01*
G01X26875Y7104D02*
G01X26824Y7208D01*
G01X26670Y7366D01*
G01X27759Y7366D01*
G54D18*
G01X32743Y2377D02*
G01X33020Y3106D01*
G01X32743Y2377D02*
G01X32466Y3106D01*
G01X32915Y2862D02*
G01X32570Y2862D01*
G01X32237Y2377D02*
G01X32237Y3106D01*
G01X32237Y2377D02*
G01X31993Y2377D01*
G01X31889Y2413D01*
G01X31821Y2481D01*
G01X31788Y2552D01*
G01X31752Y2654D01*
G01X31752Y2829D01*
G01X31788Y2933D01*
G01X31821Y3002D01*
G01X31889Y3070D01*
G01X31993Y3106D01*
G01X32237Y3106D01*
G01X31523Y2377D02*
G01X31038Y3106D01*
G01X31038Y2377D02*
G01X31523Y3106D01*
G01X30810Y2377D02*
G01X30810Y3106D01*
G01X30810Y3106D02*
G01X30393Y3106D01*
G01X30096Y2377D02*
G01X29715Y2377D01*
G01X29923Y2654D01*
G01X29819Y2654D01*
G01X29751Y2689D01*
G01X29715Y2725D01*
G01X29679Y2829D01*
G01X29679Y2898D01*
G01X29715Y3002D01*
G01X29784Y3070D01*
G01X29888Y3106D01*
G01X29992Y3106D01*
G01X30096Y3070D01*
G01X30132Y3035D01*
G01X30165Y2966D01*
G01X29105Y2377D02*
G01X29451Y2862D01*
G01X28933Y2862D01*
G01X29105Y2377D02*
G01X29105Y3106D01*
G01X28287Y2377D02*
G01X28635Y2377D01*
G01X28668Y2689D01*
G01X28635Y2654D01*
G01X28531Y2621D01*
G01X28427Y2621D01*
G01X28323Y2654D01*
G01X28254Y2725D01*
G01X28219Y2829D01*
G01X28219Y2898D01*
G01X28254Y3002D01*
G01X28323Y3070D01*
G01X28427Y3106D01*
G01X28531Y3106D01*
G01X28635Y3070D01*
G01X28668Y3035D01*
G01X28704Y2966D01*
G01X27457Y2377D02*
G01X27457Y3106D01*
G01X27457Y2377D02*
G01X27216Y2377D01*
G01X27111Y2413D01*
G01X27040Y2481D01*
G01X27007Y2552D01*
G01X26972Y2654D01*
G01X26972Y2829D01*
G01X27007Y2933D01*
G01X27040Y3002D01*
G01X27111Y3070D01*
G01X27216Y3106D01*
G01X27457Y3106D01*
G01X26743Y2377D02*
G01X26708Y2413D01*
G01X26675Y2377D01*
G01X26708Y2344D01*
G01X26743Y2377D01*
G01X26708Y2621D02*
G01X26708Y3106D01*
G01X26029Y2621D02*
G01X26029Y3175D01*
G01X26065Y3279D01*
G01X26098Y3314D01*
G01X26169Y3347D01*
G01X26273Y3347D01*
G01X26342Y3314D01*
G01X26029Y2725D02*
G01X26098Y2654D01*
G01X26169Y2621D01*
G01X26273Y2621D01*
G01X26342Y2654D01*
G01X26410Y2725D01*
G01X26446Y2829D01*
G01X26446Y2898D01*
G01X26410Y3002D01*
G01X26342Y3070D01*
G01X26273Y3106D01*
G01X26169Y3106D01*
G01X26098Y3070D01*
G01X26029Y3002D01*
G01X25801Y2377D02*
G01X25768Y2413D01*
G01X25732Y2377D01*
G01X25768Y2344D01*
G01X25801Y2377D01*
G01X25768Y2621D02*
G01X25768Y3106D01*
G01X25400Y2377D02*
G01X25400Y2966D01*
G01X25364Y3070D01*
G01X25295Y3106D01*
G01X25227Y3106D01*
G01X25504Y2621D02*
G01X25260Y2621D01*
G01X24582Y2621D02*
G01X24582Y3106D01*
G01X24582Y2725D02*
G01X24650Y2654D01*
G01X24721Y2621D01*
G01X24825Y2621D01*
G01X24894Y2654D01*
G01X24963Y2725D01*
G01X24998Y2829D01*
G01X24998Y2898D01*
G01X24963Y3002D01*
G01X24894Y3070D01*
G01X24825Y3106D01*
G01X24721Y3106D01*
G01X24650Y3070D01*
G01X24582Y3002D01*
G01X24353Y2377D02*
G01X24353Y3106D01*
G01X31981Y3647D02*
G01X32258Y4376D01*
G01X31981Y3647D02*
G01X31704Y4376D01*
G01X32153Y4132D02*
G01X31808Y4132D01*
G01X31059Y3995D02*
G01X31127Y3924D01*
G01X31198Y3891D01*
G01X31302Y3891D01*
G01X31371Y3924D01*
G01X31440Y3995D01*
G01X31475Y4099D01*
G01X31475Y4168D01*
G01X31440Y4272D01*
G01X31371Y4340D01*
G01X31302Y4376D01*
G01X31198Y4376D01*
G01X31127Y4340D01*
G01X31059Y4272D01*
G01X30416Y3995D02*
G01X30485Y3924D01*
G01X30553Y3891D01*
G01X30657Y3891D01*
G01X30726Y3924D01*
G01X30797Y3995D01*
G01X30830Y4099D01*
G01X30830Y4168D01*
G01X30797Y4272D01*
G01X30726Y4340D01*
G01X30657Y4376D01*
G01X30553Y4376D01*
G01X30485Y4340D01*
G01X30416Y4272D01*
G01X30187Y4099D02*
G01X29771Y4099D01*
G01X29771Y4028D01*
G01X29806Y3959D01*
G01X29839Y3924D01*
G01X29908Y3891D01*
G01X30012Y3891D01*
G01X30083Y3924D01*
G01X30152Y3995D01*
G01X30187Y4099D01*
G01X30187Y4168D01*
G01X30152Y4272D01*
G01X30083Y4340D01*
G01X30012Y4376D01*
G01X29908Y4376D01*
G01X29839Y4340D01*
G01X29771Y4272D01*
G01X29542Y3647D02*
G01X29542Y4376D01*
G01X29314Y4099D02*
G01X28897Y4099D01*
G01X28897Y4028D01*
G01X28933Y3959D01*
G01X28968Y3924D01*
G01X29037Y3891D01*
G01X29141Y3891D01*
G01X29210Y3924D01*
G01X29278Y3995D01*
G01X29314Y4099D01*
G01X29314Y4168D01*
G01X29278Y4272D01*
G01X29210Y4340D01*
G01X29141Y4376D01*
G01X29037Y4376D01*
G01X28968Y4340D01*
G01X28897Y4272D01*
G01X28668Y3891D02*
G01X28668Y4376D01*
G01X28668Y4099D02*
G01X28635Y3995D01*
G01X28564Y3924D01*
G01X28496Y3891D01*
G01X28392Y3891D01*
G01X27990Y3891D02*
G01X28059Y3924D01*
G01X28130Y3995D01*
G01X28163Y4099D01*
G01X28163Y4168D01*
G01X28130Y4272D01*
G01X28059Y4340D01*
G01X27990Y4376D01*
G01X27886Y4376D01*
G01X27818Y4340D01*
G01X27749Y4272D01*
G01X27713Y4168D01*
G01X27713Y4099D01*
G01X27749Y3995D01*
G01X27818Y3924D01*
G01X27886Y3891D01*
G01X27990Y3891D01*
G01X27485Y3891D02*
G01X27485Y4376D01*
G01X27485Y4028D02*
G01X27381Y3924D01*
G01X27312Y3891D01*
G01X27208Y3891D01*
G01X27139Y3924D01*
G01X27104Y4028D01*
G01X27104Y4376D01*
G01X27104Y4028D02*
G01X27000Y3924D01*
G01X26931Y3891D01*
G01X26827Y3891D01*
G01X26758Y3924D01*
G01X26723Y4028D01*
G01X26723Y4376D01*
G01X26494Y4099D02*
G01X26078Y4099D01*
G01X26078Y4028D01*
G01X26113Y3959D01*
G01X26149Y3924D01*
G01X26217Y3891D01*
G01X26322Y3891D01*
G01X26390Y3924D01*
G01X26459Y3995D01*
G01X26494Y4099D01*
G01X26494Y4168D01*
G01X26459Y4272D01*
G01X26390Y4340D01*
G01X26322Y4376D01*
G01X26217Y4376D01*
G01X26149Y4340D01*
G01X26078Y4272D01*
G01X25745Y3647D02*
G01X25745Y4236D01*
G01X25712Y4340D01*
G01X25641Y4376D01*
G01X25572Y4376D01*
G01X25849Y3891D02*
G01X25608Y3891D01*
G01X25344Y4099D02*
G01X24930Y4099D01*
G01X24930Y4028D01*
G01X24963Y3959D01*
G01X24998Y3924D01*
G01X25067Y3891D01*
G01X25171Y3891D01*
G01X25239Y3924D01*
G01X25311Y3995D01*
G01X25344Y4099D01*
G01X25344Y4168D01*
G01X25311Y4272D01*
G01X25239Y4340D01*
G01X25171Y4376D01*
G01X25067Y4376D01*
G01X24998Y4340D01*
G01X24930Y4272D01*
G01X24701Y3891D02*
G01X24701Y4376D01*
G01X24701Y4099D02*
G01X24665Y3995D01*
G01X24597Y3924D01*
G01X24526Y3891D01*
G01X24422Y3891D01*
G54D11*
G01X37528Y12760D02*
G01X37655Y12824D01*
G01X37785Y12951D01*
G01X37848Y13078D01*
G01X37848Y13335D01*
G01X37785Y13462D01*
G01X37655Y13589D01*
G01X37528Y13652D01*
G01X37338Y13716D01*
G01X37020Y13716D01*
G01X36830Y13652D01*
G01X36703Y13589D01*
G01X36576Y13462D01*
G01X36512Y13335D01*
G01X36512Y13078D01*
G01X36576Y12951D01*
G01X36703Y12824D01*
G01X36830Y12760D01*
G01X37020Y12760D01*
G01X37020Y13078D02*
G01X37020Y12760D01*
G01X37848Y12341D02*
G01X36512Y12341D01*
G01X37848Y12341D02*
G01X36512Y11450D01*
G01X37848Y11450D02*
G01X36512Y11450D01*
G01X37848Y11031D02*
G01X36512Y11031D01*
G01X37848Y11031D02*
G01X37848Y10584D01*
G01X37785Y10393D01*
G01X37655Y10266D01*
G01X37528Y10203D01*
G01X37338Y10139D01*
G01X37020Y10139D01*
G01X36830Y10203D01*
G01X36703Y10266D01*
G01X36576Y10393D01*
G01X36512Y10584D01*
G01X36512Y11031D01*
G01X35308Y13716D02*
G01X33972Y13208D01*
G01X35308Y12697D02*
G01X33972Y13208D01*
G01X34988Y11323D02*
G01X35115Y11386D01*
G01X35242Y11513D01*
G01X35308Y11643D01*
G01X35308Y11897D01*
G01X35242Y12024D01*
G01X35115Y12151D01*
G01X34988Y12214D01*
G01X34798Y12278D01*
G01X34480Y12278D01*
G01X34290Y12214D01*
G01X34163Y12151D01*
G01X34036Y12024D01*
G01X33972Y11897D01*
G01X33972Y11643D01*
G01X34036Y11513D01*
G01X34163Y11386D01*
G01X34290Y11323D01*
G01X34988Y9949D02*
G01X35115Y10012D01*
G01X35242Y10139D01*
G01X35308Y10269D01*
G01X35308Y10523D01*
G01X35242Y10650D01*
G01X35115Y10777D01*
G01X34988Y10840D01*
G01X34798Y10904D01*
G01X34480Y10904D01*
G01X34290Y10840D01*
G01X34163Y10777D01*
G01X34036Y10650D01*
G01X33972Y10523D01*
G01X33972Y10269D01*
G01X34036Y10139D01*
G01X34163Y10012D01*
G01X34290Y9949D01*
G01X32448Y12760D02*
G01X32575Y12824D01*
G01X32702Y12951D01*
G01X32768Y13081D01*
G01X32768Y13335D01*
G01X32702Y13462D01*
G01X32575Y13589D01*
G01X32448Y13652D01*
G01X32258Y13716D01*
G01X31940Y13716D01*
G01X31750Y13652D01*
G01X31623Y13589D01*
G01X31496Y13462D01*
G01X31432Y13335D01*
G01X31432Y13081D01*
G01X31496Y12951D01*
G01X31623Y12824D01*
G01X31750Y12760D01*
G01X32575Y11450D02*
G01X32702Y11577D01*
G01X32768Y11770D01*
G01X32768Y12024D01*
G01X32702Y12214D01*
G01X32575Y12341D01*
G01X32448Y12341D01*
G01X32321Y12278D01*
G01X32258Y12214D01*
G01X32194Y12087D01*
G01X32067Y11706D01*
G01X32004Y11577D01*
G01X31940Y11513D01*
G01X31813Y11450D01*
G01X31623Y11450D01*
G01X31496Y11577D01*
G01X31432Y11770D01*
G01X31432Y12024D01*
G01X31496Y12214D01*
G01X31623Y12341D01*
G01X30228Y13716D02*
G01X28892Y13716D01*
G01X30228Y13296D02*
G01X28892Y13296D01*
G01X30228Y13296D02*
G01X28892Y12405D01*
G01X30228Y12405D02*
G01X28892Y12405D01*
G01X30228Y11539D02*
G01X28892Y11539D01*
G01X30228Y11986D02*
G01X30228Y11094D01*
G01X29972Y10675D02*
G01X30035Y10548D01*
G01X30228Y10358D01*
G01X28892Y10358D01*
G01X27688Y13716D02*
G01X26352Y13716D01*
G01X27688Y13296D02*
G01X26352Y13296D01*
G01X27688Y13296D02*
G01X26352Y12405D01*
G01X27688Y12405D02*
G01X26352Y12405D01*
G01X27688Y11539D02*
G01X26352Y11539D01*
G01X27688Y11986D02*
G01X27688Y11094D01*
G01X27368Y10612D02*
G01X27432Y10612D01*
G01X27559Y10548D01*
G01X27622Y10485D01*
G01X27688Y10358D01*
G01X27688Y10101D01*
G01X27622Y9974D01*
G01X27559Y9911D01*
G01X27432Y9847D01*
G01X27305Y9847D01*
G01X27178Y9911D01*
G01X26987Y10038D01*
G01X26352Y10675D01*
G01X26352Y9784D01*
G01X24955Y12824D02*
G01X25082Y12951D01*
G01X25148Y13144D01*
G01X25148Y13398D01*
G01X25082Y13589D01*
G01X24955Y13716D01*
G01X24828Y13716D01*
G01X24701Y13652D01*
G01X24638Y13589D01*
G01X24574Y13462D01*
G01X24447Y13081D01*
G01X24384Y12951D01*
G01X24320Y12887D01*
G01X24193Y12824D01*
G01X24003Y12824D01*
G01X23876Y12951D01*
G01X23812Y13144D01*
G01X23812Y13398D01*
G01X23876Y13589D01*
G01X24003Y13716D01*
G01X25148Y12405D02*
G01X23812Y12405D01*
G01X25148Y12405D02*
G01X25148Y11960D01*
G01X25082Y11770D01*
G01X24955Y11643D01*
G01X24828Y11577D01*
G01X24638Y11513D01*
G01X24320Y11513D01*
G01X24130Y11577D01*
G01X24003Y11643D01*
G01X23876Y11770D01*
G01X23812Y11960D01*
G01X23812Y12405D01*
G01X25148Y10713D02*
G01X25082Y10840D01*
G01X24955Y10967D01*
G01X24828Y11031D01*
G01X24638Y11094D01*
G01X24320Y11094D01*
G01X24130Y11031D01*
G01X24003Y10967D01*
G01X23876Y10840D01*
G01X23812Y10713D01*
G01X23812Y10459D01*
G01X23876Y10332D01*
G01X24003Y10203D01*
G01X24130Y10139D01*
G01X24320Y10076D01*
G01X24638Y10076D01*
G01X24828Y10139D01*
G01X24955Y10203D01*
G01X25082Y10332D01*
G01X25148Y10459D01*
G01X25148Y10713D01*
G01X22415Y12824D02*
G01X22542Y12951D01*
G01X22608Y13144D01*
G01X22608Y13398D01*
G01X22542Y13589D01*
G01X22415Y13716D01*
G01X22288Y13716D01*
G01X22161Y13652D01*
G01X22098Y13589D01*
G01X22034Y13462D01*
G01X21907Y13081D01*
G01X21844Y12951D01*
G01X21780Y12887D01*
G01X21653Y12824D01*
G01X21463Y12824D01*
G01X21336Y12951D01*
G01X21272Y13144D01*
G01X21272Y13398D01*
G01X21336Y13589D01*
G01X21463Y13716D01*
G01X22608Y12405D02*
G01X21272Y12405D01*
G01X22608Y12405D02*
G01X22608Y11960D01*
G01X22542Y11770D01*
G01X22415Y11643D01*
G01X22288Y11577D01*
G01X22098Y11513D01*
G01X21780Y11513D01*
G01X21590Y11577D01*
G01X21463Y11643D01*
G01X21336Y11770D01*
G01X21272Y11960D01*
G01X21272Y12405D01*
G01X22608Y10586D02*
G01X21272Y11094D01*
G01X22608Y10586D02*
G01X21272Y10076D01*
G01X21717Y10904D02*
G01X21717Y10269D01*
G01X19875Y12824D02*
G01X20002Y12951D01*
G01X20068Y13144D01*
G01X20068Y13398D01*
G01X20002Y13589D01*
G01X19875Y13716D01*
G01X19748Y13716D01*
G01X19621Y13652D01*
G01X19558Y13589D01*
G01X19494Y13462D01*
G01X19367Y13081D01*
G01X19304Y12951D01*
G01X19240Y12887D01*
G01X19113Y12824D01*
G01X18923Y12824D01*
G01X18796Y12951D01*
G01X18732Y13144D01*
G01X18732Y13398D01*
G01X18796Y13589D01*
G01X18923Y13716D01*
G01X19748Y11450D02*
G01X19875Y11513D01*
G01X20002Y11643D01*
G01X20068Y11770D01*
G01X20068Y12024D01*
G01X20002Y12151D01*
G01X19875Y12278D01*
G01X19748Y12341D01*
G01X19558Y12405D01*
G01X19240Y12405D01*
G01X19050Y12341D01*
G01X18923Y12278D01*
G01X18796Y12151D01*
G01X18732Y12024D01*
G01X18732Y11770D01*
G01X18796Y11643D01*
G01X18923Y11513D01*
G01X19050Y11450D01*
G01X20068Y11031D02*
G01X18732Y11031D01*
G01X18732Y11031D02*
G01X18732Y10269D01*
G54D23*
G01X48966Y24274D02*
G01X48966Y23495D01*
G01X49016Y23337D01*
G01X49121Y23235D01*
G01X49278Y23182D01*
G01X49382Y23182D01*
G01X49537Y23235D01*
G01X49641Y23337D01*
G01X49692Y23495D01*
G01X49692Y24274D01*
G01X50139Y24274D02*
G01X50711Y24274D01*
G01X50398Y23858D01*
G01X50556Y23858D01*
G01X50660Y23807D01*
G01X50711Y23754D01*
G01X50764Y23599D01*
G01X50764Y23495D01*
G01X50711Y23337D01*
G01X50606Y23235D01*
G01X50452Y23182D01*
G01X50297Y23182D01*
G01X50139Y23235D01*
G01X50088Y23286D01*
G01X50035Y23390D01*
G54D18*
G01X49080Y16822D02*
G01X49080Y16197D01*
G01X48768Y16510D02*
G01X49390Y16510D01*
G01X47244Y16764D02*
G01X47866Y16764D01*
G54D10*
G75*
G01X47031Y67525D02*
G02X46332Y66626I-799J-100D01*
G01*
G75*
G01X35971Y66677D02*
G02X35133Y68226I103J1057D01*
G01*
G75*
G01X47092Y67716D02*
G03X45892Y68917I-1200J1D01*
G01*
G75*
G01X36373Y68884D02*
G03X35073Y67784I-100J-1200D01*
G01*
G54D19*
G75*
G01X27940Y22098D02*
G02X25400Y19558I-2500J-40D01*
G01*
G75*
G01X2540Y22098D02*
G03X5080Y19558I2500J-40D01*
G01*
G75*
G01X27940Y65278D02*
G03X25400Y67818I-2500J40D01*
G01*
G75*
G01X2540Y65278D02*
G02X5080Y67818I2500J40D01*
G01*
G54D10*
G75*
G01X45974Y20066D02*
G02X45974Y17526I2857J-1270D01*
G01*
G75*
G01X48514Y20828D02*
G02X49530Y20574I159J-1523D01*
G01*
G54D19*
G75*
G01X27132Y65507D02*
G03X27132Y65507I-1501J0D01*
G01*
G54D10*
G75*
G01X6350Y65507D02*
G03X6350Y65507I-1501J0D01*
G01*
G54D19*
G75*
G01X6350Y21867D02*
G03X6350Y21867I-1501J0D01*
G01*
G75*
G01X27132Y21867D02*
G03X27132Y21867I-1501J0D01*
G01*
G54D10*
G75*
G01X51384Y18796D02*
G03X51384Y18796I-2616J0D01*
G01*
M00*
M02*
